<svg width="117" height="23" viewBox="0 0 117 23" fill="none" xmlns="http://www.w3.org/2000/svg">
<path fill-rule="evenodd" clip-rule="evenodd" d="M10.436 2.80845C10.871 1.73052 12.3524 1.73052 12.7874 2.80845L14.8072 7.81418L20.05 8.24742C21.179 8.34072 21.6368 9.79295 20.7766 10.5526L16.7822 14.0795L18.0025 19.353C18.2653 20.4886 17.0668 21.3861 16.1002 20.7776L11.6117 17.9517L7.12312 20.7776C6.15655 21.3861 4.95803 20.4886 5.22083 19.353L6.44119 14.0795L2.44676 10.5526C1.58658 9.79295 2.04437 8.34072 3.17337 8.24742L8.41614 7.81418L10.436 2.80845Z" fill="#EAB308"/>
<path fill-rule="evenodd" clip-rule="evenodd" d="M33.6594 2.80845C34.0944 1.73052 35.5758 1.73052 36.0108 2.80845L38.0306 7.81418L43.2734 8.24742C44.4024 8.34072 44.8602 9.79295 44 10.5526L40.0056 14.0795L41.2259 19.353C41.4887 20.4886 40.2902 21.3861 39.3236 20.7776L34.8351 17.9517L30.3465 20.7776C29.3799 21.3861 28.1814 20.4886 28.4442 19.353L29.6646 14.0795L25.6701 10.5526C24.81 9.79295 25.2678 8.34072 26.3968 8.24742L31.6395 7.81418L33.6594 2.80845Z" fill="#EAB308"/>
<path fill-rule="evenodd" clip-rule="evenodd" d="M56.8827 2.80845C57.3177 1.73052 58.7991 1.73052 59.2341 2.80845L61.2539 7.81418L66.4967 8.24742C67.6257 8.34072 68.0835 9.79295 67.2233 10.5526L63.2289 14.0795L64.4492 19.353C64.712 20.4886 63.5135 21.3861 62.5469 20.7776L58.0584 17.9517L53.5699 20.7776C52.6033 21.3861 51.4048 20.4886 51.6676 19.353L52.888 14.0795L48.8935 10.5526C48.0334 9.79295 48.4911 8.34072 49.6201 8.24742L54.8629 7.81418L56.8827 2.80845Z" fill="#EAB308"/>
<path fill-rule="evenodd" clip-rule="evenodd" d="M80.1059 2.80845C80.5409 1.73052 82.0223 1.73052 82.4573 2.80845L84.4771 7.81418L89.7199 8.24742C90.8489 8.34072 91.3067 9.79295 90.4465 10.5526L86.4521 14.0795L87.6724 19.353C87.9352 20.4886 86.7367 21.3861 85.7701 20.7776L81.2816 17.9517L76.793 20.7776C75.8265 21.3861 74.628 20.4886 74.8908 19.353L76.1111 14.0795L72.1167 10.5526C71.2565 9.79295 71.7143 8.34072 72.8433 8.24742L78.0861 7.81418L80.1059 2.80845Z" fill="#EAB308"/>
<path fill-rule="evenodd" clip-rule="evenodd" d="M103.329 2.80845C103.764 1.73052 105.246 1.73052 105.681 2.80845L107.7 7.81418L112.943 8.24742C114.072 8.34072 114.53 9.79295 113.67 10.5526L109.675 14.0795L110.896 19.353C111.159 20.4886 109.96 21.3861 108.993 20.7776L104.505 17.9517L100.016 20.7776C99.0499 21.3861 97.8513 20.4886 98.1141 19.353L99.3345 14.0795L95.3401 10.5526C94.4799 9.79295 94.9377 8.34072 96.0667 8.24742L101.309 7.81418L103.329 2.80845Z" fill="#EAB308"/>
</svg>
